<?xml version="1.0" standalone="no"?>
<!DOCTYPE svg PUBLIC "-//W3C//DTD SVG 20010904//EN"
 "http://www.w3.org/TR/2001/REC-SVG-20010904/DTD/svg10.dtd">
<svg version="1.0" xmlns="http://www.w3.org/2000/svg"
 width="183.000000pt" height="275.000000pt" viewBox="0 0 183.000000 275.000000"
 preserveAspectRatio="xMidYMid meet">

<g transform="translate(0.000000,275.000000) scale(0.100000,-0.100000)"
fill="#000000" stroke="none">
<path d="M100 1375 l0 -1235 815 0 c770 0 815 1 814 18 0 10 -3 12 -6 5 -4
-10 -175 -13 -809 -13 l-804 0 0 240 0 240 294 0 294 0 31 -26 c24 -20 31 -22
31 -10 0 8 9 20 19 26 13 6 183 10 485 10 315 0 466 3 466 10 0 7 -150 10
-469 8 -445 -3 -470 -4 -490 -22 l-21 -19 0 81 0 82 -30 0 c-26 0 -30 3 -30
29 0 25 -6 31 -35 41 -20 7 -56 27 -81 47 -43 32 -47 33 -69 19 -26 -17 -27
-17 -68 55 l-27 47 22 14 c20 13 22 24 23 111 1 91 0 96 -23 106 l-23 11 32
58 c18 31 33 58 35 60 1 2 15 -3 32 -12 28 -14 30 -14 52 9 12 13 46 34 76 47
46 20 54 27 54 51 0 23 4 27 30 27 l30 0 0 123 0 122 201 103 c111 57 202 102
204 100 1 -2 -88 -179 -199 -395 l-201 -391 -3 124 -3 124 -27 0 c-43 0 -128
-47 -167 -92 -73 -86 -84 -207 -29 -309 40 -72 132 -136 202 -138 22 -1 22 1
22 112 l0 114 53 84 c29 46 173 272 321 501 288 448 289 451 234 491 -23 18
-31 19 -54 8 -14 -6 -139 -85 -278 -174 -138 -90 -257 -167 -263 -171 -10 -6
-13 74 -13 383 l0 391 493 3 c336 1 233 3 -325 5 l-818 2 0 -1235z m350 1003
c9 -26 14 -28 62 -28 l53 -1 -25 -20 c-14 -12 -33 -27 -43 -34 -16 -11 -16
-15 -2 -55 8 -24 13 -45 11 -48 -3 -2 -20 8 -39 22 -19 14 -37 26 -41 26 -4 0
-22 -11 -40 -25 -18 -14 -36 -25 -39 -25 -3 0 0 19 8 41 20 55 20 54 -20 79
-19 12 -35 26 -35 31 0 5 22 9 49 9 l48 0 14 47 c13 49 14 49 39 -19z m915
-238 c25 -27 10 -71 -27 -84 -22 -8 -32 -6 -48 9 -22 20 -27 64 -8 83 19 19
63 14 83 -8z m-108 -41 c3 -30 32 -59 60 -59 12 0 23 -2 23 -4 0 -6 -541 -850
-553 -861 -10 -10 323 650 376 744 16 29 26 52 20 50 -5 -2 -173 -87 -374
-188 -200 -101 -360 -180 -356 -175 15 16 782 513 792 513 6 1 11 -9 12 -20z"/>
<path d="M1400 2443 c-24 -9 -30 -25 -30 -80 0 -54 17 -83 49 -83 30 0 41 22
41 87 0 51 -3 64 -19 73 -11 5 -21 10 -23 9 -2 0 -10 -3 -18 -6z m30 -79 c0
-40 -4 -55 -12 -52 -14 5 -23 70 -14 94 12 32 26 11 26 -42z"/>
<path d="M1502 2434 c-18 -12 -22 -25 -22 -69 0 -57 16 -85 50 -85 22 0 55 44
45 60 -11 18 -35 11 -35 -10 0 -11 -4 -20 -10 -20 -5 0 -10 25 -10 55 0 30 5
55 10 55 6 0 10 -7 10 -15 0 -8 9 -15 20 -15 11 0 20 5 20 10 0 12 -37 50 -48
50 -4 0 -18 -7 -30 -16z"/>
<path d="M928 2408 c-2 -19 -2 -55 0 -81 4 -46 5 -47 37 -47 46 0 56 18 53 92
l-3 63 -41 3 c-41 3 -42 2 -46 -30z m62 -43 c0 -42 -3 -55 -15 -55 -18 0 -21
46 -2 54 10 5 10 7 0 12 -18 8 -16 44 2 44 12 0 15 -13 15 -55z"/>
<path d="M1065 2428 c-5 -15 -25 -127 -25 -140 0 -4 7 -8 15 -8 8 0 15 7 15
15 0 8 9 15 20 15 11 0 20 -7 20 -15 0 -8 7 -15 15 -15 18 0 19 14 3 96 -10
57 -14 64 -35 64 -13 0 -26 -6 -28 -12z m35 -53 c0 -19 -4 -35 -10 -35 -11 0
-14 53 -3 63 11 12 13 8 13 -28z"/>
<path d="M1160 2360 c0 -64 3 -80 15 -80 12 0 15 16 15 80 0 64 -3 80 -15 80
-12 0 -15 -16 -15 -80z"/>
<path d="M1252 2363 c3 -65 6 -78 21 -81 14 -3 17 4 17 32 0 20 5 36 10 36 6
0 10 -16 10 -35 0 -28 4 -35 20 -35 18 0 20 7 20 80 0 73 -2 80 -20 80 -16 0
-20 -7 -20 -30 0 -16 -4 -30 -10 -30 -5 0 -10 14 -10 30 0 24 -4 30 -20 30
-19 0 -21 -5 -18 -77z"/>
<path d="M1078 2253 c6 -2 18 -2 25 0 6 3 1 5 -13 5 -14 0 -19 -2 -12 -5z"/>
<path d="M1400 2256 c0 -2 7 -6 15 -10 8 -3 15 -1 15 4 0 6 -7 10 -15 10 -8 0
-15 -2 -15 -4z"/>
<path d="M446 554 c-8 -22 -8 -24 9 -24 8 0 19 9 25 20 9 17 8 20 -9 20 -10 0
-22 -7 -25 -16z"/>
<path d="M220 390 l0 -120 48 0 c65 0 85 16 85 69 0 26 -6 47 -14 52 -11 6
-11 11 -1 21 15 15 16 70 0 86 -7 7 -36 12 -65 12 l-53 0 0 -120z m80 55 c0
-16 -6 -25 -15 -25 -9 0 -15 9 -15 25 0 16 6 25 15 25 9 0 15 -9 15 -25z m0
-100 c0 -24 -5 -35 -15 -35 -10 0 -15 11 -15 35 0 24 5 35 15 35 10 0 15 -11
15 -35z"/>
<path d="M415 488 c-11 -50 -35 -184 -35 -200 0 -13 8 -18 25 -18 18 0 25 5
25 18 0 25 7 31 31 25 10 -3 19 -14 19 -24 0 -15 7 -19 31 -19 24 0 29 4 25
18 -2 9 -12 55 -21 102 -24 124 -22 120 -60 120 -28 0 -36 -5 -40 -22z m54
-105 c1 -23 -4 -33 -14 -33 -17 0 -19 23 -8 85 l7 40 7 -30 c4 -16 7 -45 8
-62z"/>
<path d="M580 500 c-11 -6 -16 -33 -20 -90 -7 -115 5 -140 67 -140 22 0 38 8
52 26 31 40 28 64 -9 64 -25 0 -30 -4 -30 -25 0 -16 -6 -25 -15 -25 -12 0 -15
16 -15 80 0 64 3 80 15 80 9 0 15 -9 15 -25 0 -21 5 -25 30 -25 21 0 30 5 30
16 0 19 -19 56 -34 66 -16 11 -68 9 -86 -2z"/>
<path d="M720 390 l0 -120 30 0 c29 0 30 1 30 50 0 38 4 50 15 50 11 0 15 -12
15 -50 0 -47 2 -50 25 -50 l25 0 0 120 0 120 -25 0 c-23 0 -25 -4 -25 -45 0
-33 -4 -45 -15 -45 -11 0 -15 12 -15 45 0 43 -1 45 -30 45 l-30 0 0 -120z"/>
<path d="M970 390 l0 -120 25 0 c23 0 25 4 25 40 0 50 15 52 27 3 7 -31 14
-39 36 -41 32 -4 33 -2 7 82 l-21 66 21 39 c25 51 25 51 -5 51 -21 0 -30 -9
-45 -42 l-19 -43 0 43 c-1 38 -3 42 -26 42 l-25 0 0 -120z"/>
<path d="M1140 390 l0 -120 25 0 c23 0 25 3 25 50 0 38 4 50 15 50 11 0 15
-12 15 -50 0 -49 1 -50 30 -50 l30 0 0 120 0 120 -30 0 c-29 0 -30 -2 -30 -45
0 -33 -4 -45 -15 -45 -11 0 -15 12 -15 45 0 41 -2 45 -25 45 l-25 0 0 -120z"/>
<path d="M1327 492 c-26 -28 -24 -182 1 -205 29 -26 77 -22 101 9 35 45 27
180 -13 206 -21 14 -73 8 -89 -10z m63 -102 c0 -64 -3 -80 -15 -80 -12 0 -15
16 -15 80 0 64 3 80 15 80 12 0 15 -16 15 -80z"/>
<path d="M1509 508 c0 -2 -11 -56 -23 -120 l-22 -118 28 0 c21 0 28 5 28 19 0
10 6 21 14 24 16 6 36 -11 36 -30 0 -8 12 -13 28 -13 l29 0 -23 118 c-13 64
-24 118 -24 120 0 1 -16 2 -35 2 -19 0 -35 -1 -36 -2z m45 -100 c6 -49 5 -58
-8 -58 -17 0 -21 33 -10 89 8 41 10 38 18 -31z"/>
</g>
</svg>
